<svg width="20" height="20" viewBox="0 0 20 20" fill="none" xmlns="http://www.w3.org/2000/svg">
<path d="M10 5.83333V16.6667M10 5.83333H7.05357C6.61943 5.83333 6.20308 5.65774 5.89611 5.34517C5.58912 5.03262 5.41667 4.60869 5.41667 4.16667C5.41667 3.72464 5.58912 3.30072 5.89611 2.98816C6.20308 2.67559 6.61943 2.5 7.05357 2.5C9.34525 2.5 10 5.83333 10 5.83333ZM10 5.83333H12.9464C13.3806 5.83333 13.7969 5.65774 14.1039 5.34517C14.4108 5.03262 14.5833 4.60869 14.5833 4.16667C14.5833 3.72464 14.4108 3.30072 14.1039 2.98816C13.7969 2.67559 13.3806 2.5 12.9464 2.5C10.6547 2.5 10 5.83333 10 5.83333ZM4.16667 10H15.8333V14.8333C15.8333 15.7667 15.8333 16.2335 15.6517 16.59C15.4919 16.9036 15.2369 17.1586 14.9233 17.3183C14.5668 17.5 14.1001 17.5 13.1667 17.5H6.83333C5.89991 17.5 5.4332 17.5 5.07668 17.3183C4.76307 17.1586 4.50811 16.9036 4.34832 16.59C4.16667 16.2335 4.16667 15.7667 4.16667 14.8333V10ZM3.83333 10H16.1667C16.6334 10 16.8668 10 17.045 9.90917C17.2018 9.82925 17.3293 9.70183 17.4092 9.545C17.5 9.36675 17.5 9.13342 17.5 8.66667V7.16667C17.5 6.69996 17.5 6.4666 17.4092 6.28834C17.3293 6.13154 17.2018 6.00406 17.045 5.92416C16.8668 5.83333 16.6334 5.83333 16.1667 5.83333H3.83333C3.36662 5.83333 3.13327 5.83333 2.95501 5.92416C2.79821 6.00406 2.67072 6.13154 2.59082 6.28834C2.5 6.4666 2.5 6.69996 2.5 7.16667V8.66667C2.5 9.13342 2.5 9.36675 2.59082 9.545C2.67072 9.70183 2.79821 9.82925 2.95501 9.90917C3.13327 10 3.36662 10 3.83333 10Z" stroke="#FBFF2E" stroke-width="1.41667" stroke-linecap="round" stroke-linejoin="round"/>
</svg>
