<svg width="32" height="32" viewBox="0 0 32 32" fill="none" xmlns="http://www.w3.org/2000/svg">
<g clip-path="url(#clip0_130_39)">
<path d="M14.4 23.6999C14.9 23.6999 15.35 24.0999 15.35 24.6499C15.35 25.1499 14.95 25.5999 14.4 25.5999C13.9 25.5999 13.45 25.1999 13.45 24.6499C13.45 24.0999 13.9 23.6999 14.4 23.6999ZM29.1 17.8999C28.6 17.8999 28.15 17.4999 28.15 16.9499C28.15 16.4499 28.55 15.9999 29.1 15.9999C29.6 15.9999 30.05 16.3999 30.05 16.9499C30.05 17.4499 29.6 17.8999 29.1 17.8999ZM29.1 14.0499C27.5 14.0499 26.2 15.3499 26.2 16.9499C26.2 17.2499 26.25 17.5499 26.35 17.8499L16.8 22.9499C16.25 22.1499 15.35 21.6999 14.4 21.6999C13.3 21.6999 12.3 22.3499 11.8 23.2999L3.19999 18.7999C2.29999 18.2999 1.59999 16.8499 1.69999 15.4499C1.74999 14.7499 1.99999 14.1999 2.34999 13.9999C2.59999 13.8499 2.84999 13.8999 3.19999 14.0499L3.24999 14.0999C5.54999 15.2999 13 19.1999 13.3 19.3499C13.8 19.5499 14.05 19.6499 14.9 19.2499L30.3 11.2499C30.55 11.1499 30.8 10.9499 30.8 10.5999C30.8 10.1499 30.35 9.94992 30.35 9.94992C29.45 9.54992 28.1 8.89992 26.8 8.29992C24 6.99992 20.8 5.49992 19.4 4.74992C18.2 4.09992 17.2 4.64992 17.05 4.74992L16.7 4.89992C10.35 8.09992 1.94999 12.2499 1.44999 12.5499C0.599989 13.0499 0.0499886 14.0999 -1.13519e-05 15.3999C-0.100011 17.4499 0.949989 19.5999 2.44999 20.3499L11.55 25.0499C11.75 26.4499 13 27.5499 14.4 27.5499C16 27.5499 17.25 26.2999 17.3 24.6999L27.3 19.2999C27.8 19.6999 28.45 19.8999 29.1 19.8999C30.7 19.8999 32 18.5999 32 16.9999C32 15.3499 30.7 14.0499 29.1 14.0499Z" fill="#FBFF2E"/>
</g>
<defs>
<clipPath id="clip0_130_39">
<rect width="32" height="32" fill="white"/>
</clipPath>
</defs>
</svg>
