<svg width="28" height="28" viewBox="0 0 28 28" fill="none" xmlns="http://www.w3.org/2000/svg">
<path d="M25.8816 23.1883L28 25.2336V25.3014H17.255V25.2336L19.4119 23.1883C19.642 22.9988 19.7523 22.6983 19.6993 22.403V9.32827C19.6993 8.77571 19.6993 8.02889 19.7956 7.39014L12.5475 25.563H12.4613L4.956 8.84352L4.63969 8.11639V19.0793C4.54976 19.8125 4.67294 20.5562 4.9945 21.2213L8.01413 25.234V25.3018H0V25.234L3.01962 21.2116C3.339 20.5501 3.45712 19.8099 3.374 19.0793V6.96314C3.423 6.36639 3.24494 5.77314 2.87525 5.30589L0.738063 2.50458V2.43677H8.40656L14.8291 16.5978L20.4846 2.43677H27.9904V2.50458L25.8816 4.87933C25.6287 5.06614 25.5027 5.38158 25.5557 5.69308V22.403C25.5281 22.5514 25.5442 22.7046 25.602 22.844C25.6599 22.9834 25.757 23.103 25.8816 23.1883Z" fill="#FBFF2E"/>
</svg>
