<?xml version="1.0" standalone="no"?>
<!DOCTYPE svg PUBLIC "-//W3C//DTD SVG 20010904//EN"
 "http://www.w3.org/TR/2001/REC-SVG-20010904/DTD/svg10.dtd">
<svg version="1.0" xmlns="http://www.w3.org/2000/svg"
 width="305.000000pt" height="305.000000pt" viewBox="0 0 305.000000 305.000000"
 preserveAspectRatio="xMidYMid meet">
<metadata>
Created by potrace 1.14, written by Peter Selinger 2001-2017
</metadata>
<g transform="translate(0.000000,305.000000) scale(0.100000,-0.100000)"
fill="#000000" stroke="none">
<path d="M1295 2905 c-192 -54 -304 -119 -449 -260 -23 -22 -55 -58 -71 -80
-17 -22 -32 -42 -36 -45 -3 -3 -21 -32 -41 -65 -91 -152 -150 -329 -183 -559
-4 -23 -8 -50 -10 -61 -7 -42 -19 -150 -17 -157 1 -3 -5 -9 -13 -12 -14 -5
-70 30 -187 120 -59 45 -124 74 -166 74 -41 0 -91 -36 -109 -77 -51 -123 56
-295 287 -459 l112 -79 -5 -55 c-12 -130 -66 -314 -137 -465 -91 -194 -100
-222 -102 -297 -3 -91 47 -152 132 -164 63 -8 114 8 195 62 109 73 135 86 181
86 68 0 111 -32 208 -156 43 -55 103 -87 168 -87 86 -1 128 17 216 90 103 86
173 108 246 77 18 -7 62 -44 97 -81 35 -37 87 -80 114 -96 43 -25 60 -29 128
-29 94 0 119 14 222 119 137 142 209 146 348 22 37 -34 81 -68 97 -76 73 -38
189 -2 221 69 37 83 26 143 -75 380 -84 197 -108 269 -127 377 -19 114 -12
125 117 189 118 59 195 112 271 189 128 129 159 315 59 356 -73 31 -119 18
-254 -72 -98 -65 -153 -93 -188 -93 l-23 0 0 173 c-1 94 -3 188 -5 207 -20
153 -25 176 -53 265 -36 112 -84 211 -153 313 -135 198 -280 303 -500 359 -84
21 -115 23 -265 22 -143 -1 -183 -5 -250 -24z"/>
</g>
</svg>
